<?xml version="1.0" encoding="utf-8"?>
<!-- Generator: Adobe Illustrator 19.0.0, SVG Export Plug-In . SVG Version: 6.00 Build 0)  -->
<svg version="1.1" id="Слой_1" xmlns="http://www.w3.org/2000/svg" xmlns:xlink="http://www.w3.org/1999/xlink" x="0px" y="0px"
	 viewBox="0 0 1249 1107" style="enable-background:new 0 0 1249 1107;" xml:space="preserve">
<style type="text/css">
	.st0{fill:#FFFFFF;}
	.st1{fill:#DEE7FF;}
	.st2{fill:#7195C7;}
	.st3{fill:#FFA79B;}
	.st4{fill:#952C28;}
	.st5{fill:#CADAFF;}
	.st6{fill:#2252B2;}
	.st7{fill:#FECA55;}
	.st8{fill:#D24A43;}
	.st9{fill:#697CCC;}
	.st10{fill:#BCD7FD;}
	.st11{fill:#003865;}
	.st12{fill:#0083F9;}
</style>
<rect id="BG" class="st0" width="1249" height="1107"/>
<g id="Window_2">
	<g id="Window">
		<rect id="XMLID_378_" x="266" y="122.8" class="st1" width="667.4" height="376.6"/>
		<path id="XMLID_375_" class="st0" d="M419.3,444.2c-30.8-30.8-61.5-61.5-92.3-92.3c-1.3-1.3-3.2,0.7-2,2
			c30.8,30.8,61.5,61.5,92.3,92.3C418.6,447.4,420.6,445.5,419.3,444.2z"/>
		<path id="XMLID_374_" class="st0" d="M327,446.2c30.8-30.8,61.5-61.5,92.3-92.3c1.3-1.3-0.7-3.2-2-2
			c-30.8,30.8-61.5,61.5-92.3,92.3C323.8,445.5,325.7,447.4,327,446.2z"/>
		<path id="XMLID_2500_" class="st2" d="M307.6,361c-0.8,0-1.4-0.6-1.4-1.4v-23.3c0-0.8,0.6-1.4,1.4-1.4h23.7c0.8,0,1.4,0.6,1.4,1.4
			s-0.6,1.4-1.4,1.4h-22.3v21.9C308.9,360.4,308.3,361,307.6,361z"/>
		<path id="XMLID_2498_" class="st2" d="M437.7,361.3c-0.8,0-1.4-0.6-1.4-1.4v-22.3h-21.9c-0.8,0-1.4-0.6-1.4-1.4s0.6-1.4,1.4-1.4
			h23.3c0.8,0,1.4,0.6,1.4,1.4v23.7C439,360.7,438.4,361.3,437.7,361.3z"/>
		<path id="XMLID_2497_" class="st2" d="M331,462.3h-23.3c-0.8,0-1.4-0.6-1.4-1.4v-23.7c0-0.8,0.6-1.4,1.4-1.4
			c0.8,0,1.4,0.6,1.4,1.4v22.3H331c0.8,0,1.4,0.6,1.4,1.4C332.4,461.7,331.8,462.3,331,462.3z"/>
		<rect id="XMLID_370_" x="770.3" y="400.7" class="st3" width="130.2" height="68.3"/>
		<path id="XMLID_307_" class="st4" d="M917.3,150.7c-5.4-5.4-10.8-10.8-16.2-16.2c-1.3-1.3-3.2,0.7-2,2
			c5.4,5.4,10.8,10.8,16.2,16.2C916.6,153.9,918.6,152,917.3,150.7z"/>
		<path id="XMLID_306_" class="st4" d="M901.2,152.6c5.4-5.4,10.8-10.8,16.2-16.2c1.3-1.3-0.7-3.2-2-2c-5.4,5.4-10.8,10.8-16.2,16.2
			C897.9,152,899.9,153.9,901.2,152.6z"/>
		<rect id="XMLID_305_" x="266" y="161.4" class="st0" width="667.4" height="2.8"/>
		<rect id="XMLID_304_" x="770.3" y="182.6" class="st0" width="130.2" height="68.3"/>
		<rect id="XMLID_303_" x="770.3" y="182.6" class="st0" width="130.2" height="68.3"/>
		<rect id="XMLID_302_" x="513.9" y="182.6" class="st5" width="232.2" height="148.6"/>
		<path id="XMLID_301_" class="st0" d="M711.5,203.2c-21.8,6.3-28.1,29.4-37.8,47.1c-6.1,11.1-15.9,22.6-29.5,23.2
			c-11.3,0.5-19.6-7.8-26.8-15.3c-12.7-13.4-26.5-24.2-46.3-20.6c-18.3,3.4-31.4,19.3-33.1,37.6c-0.2,1.8,2.6,1.8,2.8,0
			c2.2-24,25.4-40.7,48.9-34c18.6,5.3,25.9,25.3,42.9,32.8c15.7,7,31.2-3.3,39.9-16.2c11.9-17.8,16.3-45.1,39.8-51.9
			C714,205.3,713.2,202.7,711.5,203.2z"/>
		<path id="XMLID_289_" class="st6" d="M471.4,246.3H308c-1.8,0-1.8,2.8,0,2.8h163.4C473.1,249.1,473.1,246.3,471.4,246.3z"/>
		<path id="XMLID_288_" class="st6" d="M471.4,271.2H308c-1.8,0-1.8,2.8,0,2.8h163.4C473.1,274,473.1,271.2,471.4,271.2z"/>
		<path id="XMLID_287_" class="st6" d="M471.4,298H308c-1.8,0-1.8,2.8,0,2.8h163.4C473.1,300.7,473.1,298,471.4,298z"/>
		<rect id="XMLID_286_" x="306.6" y="209.4" class="st3" width="105.7" height="18.5"/>
		<rect id="XMLID_2317_" x="867.6" y="192.1" class="st7" width="23.5" height="20.1"/>
		<path id="XMLID_254_" class="st3" d="M546.6,275.6c0.4,4.2-3.4,7.6-7.6,7.6c-4.2,0-7.6-3.4-7.6-7.6s3.4-7.6,7.6-7.6
			C543.2,268,546.1,270.5,546.6,275.6z"/>
		<path id="XMLID_253_" class="st3" d="M647.7,276.4c0.4,4.2-3.4,7.6-7.6,7.6c-4.2,0-7.6-3.4-7.6-7.6s3.4-7.6,7.6-7.6
			C644.3,268.8,647.3,271.3,647.7,276.4z"/>
		<path id="XMLID_252_" class="st3" d="M582,238.8c0.4,4.2-3.4,7.6-7.6,7.6c-4.2,0-7.6-3.4-7.6-7.6c0-4.2,3.4-7.6,7.6-7.6
			C578.6,231.2,581.6,233.7,582,238.8z"/>
		<path id="XMLID_250_" class="st3" d="M705.3,213.5c0.4,4.2-3.4,7.6-7.6,7.6s-7.6-3.4-7.6-7.6c0-4.2,3.4-7.6,7.6-7.6
			S704.8,208.5,705.3,213.5z"/>
		<rect id="XMLID_2315_" x="543.4" y="426.1" class="st7" width="71.3" height="51.2"/>
		<path id="XMLID_2316_" class="st0" d="M579.4,455.5c-0.3,0-0.6-0.1-0.8-0.3L548.1,432c-0.6-0.5-0.7-1.3-0.3-1.9
			c0.5-0.6,1.3-0.7,1.9-0.3l29.6,22.5l28.9-22.8c0.6-0.5,1.5-0.4,1.9,0.2c0.5,0.6,0.4,1.5-0.2,1.9l-29.8,23.4
			C580,455.4,579.7,455.5,579.4,455.5z"/>
		<path id="XMLID_222_" class="st0" d="M625.1,422.6v15.2c0,1.8,2.8,1.8,2.8,0v-15.2C627.9,420.8,625.1,420.8,625.1,422.6z"/>
		<path id="XMLID_202_" class="st0" d="M882.2,421.2h-56.1c-1.8,0-1.8,2.8,0,2.8h56.1C884,424,884,421.2,882.2,421.2z"/>
		<path id="XMLID_201_" class="st0" d="M882.2,437.8h-56.1c-1.8,0-1.8,2.8,0,2.8h56.1C884,440.6,884,437.8,882.2,437.8z"/>
	</g>
	<g id="Arrow">
		<path id="XMLID_2447_" class="st8" d="M425.3,203.8c-0.1,0-0.2,0-0.3,0c-0.7-0.2-1.2-0.9-1-1.7c0.7-2.7,1.5-5.4,2.4-8.1
			c0.2-0.7,1-1.1,1.8-0.9c0.7,0.2,1.1,1,0.9,1.8c-0.9,2.6-1.7,5.2-2.3,7.9C426.4,203.4,425.9,203.8,425.3,203.8z"/>
		<path id="XMLID_2334_" class="st8" d="M624.3,203.7c-0.6,0-1.2-0.4-1.3-1c-1.4-5.1-3.2-10.1-5.5-14.7c-0.3-0.7,0-1.5,0.7-1.8
			c0.7-0.3,1.5,0,1.8,0.7c2.3,4.8,4.2,9.9,5.6,15.2c0.2,0.7-0.2,1.5-1,1.7C624.6,203.7,624.5,203.7,624.3,203.7z M434,181.2
			c-0.2,0-0.4-0.1-0.7-0.2c-0.7-0.4-0.9-1.2-0.6-1.9c2.6-4.8,5.6-9.3,8.9-13.5c0.5-0.6,1.3-0.7,1.9-0.2s0.7,1.3,0.2,1.9
			c-3.2,4.1-6.2,8.5-8.7,13.1C435,180.9,434.5,181.2,434,181.2z M610.7,175c-0.4,0-0.9-0.2-1.1-0.6c-3-4.2-6.5-8.3-10.2-11.9
			c-0.5-0.5-0.6-1.4,0-2c0.5-0.5,1.4-0.6,2,0c3.9,3.8,7.4,8,10.5,12.3c0.4,0.6,0.3,1.5-0.3,1.9C611.2,174.9,611,175,610.7,175z
			 M453.9,156.3c-0.4,0-0.8-0.2-1-0.5c-0.5-0.6-0.4-1.5,0.1-2c4-3.5,8.5-6.7,13.1-9.5c0.7-0.4,1.5-0.2,1.9,0.5
			c0.4,0.7,0.2,1.5-0.5,1.9c-4.5,2.7-8.8,5.8-12.7,9.2C454.5,156.2,454.2,156.3,453.9,156.3z M588,152.6c-0.3,0-0.6-0.1-0.8-0.3
			c-4.2-3-8.8-5.7-13.5-8.1c-0.7-0.3-1-1.2-0.6-1.9c0.3-0.7,1.2-1,1.9-0.6c4.9,2.4,9.6,5.2,13.9,8.3c0.6,0.4,0.8,1.3,0.3,1.9
			C588.9,152.4,588.5,152.6,588,152.6z M481.1,139.9c-0.6,0-1.1-0.3-1.3-0.9c-0.3-0.7,0.1-1.5,0.8-1.8c4.9-2,10.1-3.6,15.5-4.8
			c0.7-0.2,1.5,0.3,1.7,1s-0.3,1.5-1,1.7c-5.2,1.2-10.2,2.8-15.1,4.7C481.5,139.9,481.3,139.9,481.1,139.9z M559.5,138.4
			c-0.1,0-0.3,0-0.4-0.1c-5-1.6-10.1-3-15.3-4c-0.8-0.1-1.2-0.9-1.1-1.6c0.1-0.8,0.9-1.2,1.6-1.1c5.3,1,10.6,2.4,15.7,4
			c0.7,0.2,1.1,1,0.9,1.8C560.6,138,560.1,138.4,559.5,138.4z M512.2,132.7c-0.7,0-1.3-0.5-1.4-1.3c-0.1-0.8,0.5-1.4,1.3-1.5
			c5.3-0.4,10.8-0.5,16.2-0.3c0.8,0,1.3,0.7,1.3,1.5c0,0.8-0.6,1.4-1.5,1.3c-5.3-0.3-10.6-0.2-15.8,0.2
			C512.3,132.7,512.2,132.7,512.2,132.7z"/>
		<path id="XMLID_2325_" class="st8" d="M627.9,227.8c-0.7,0-1.4-0.6-1.4-1.3c-0.1-2.7-0.3-5.5-0.5-8.2c-0.1-0.8,0.5-1.4,1.2-1.5
			c0.8-0.1,1.4,0.5,1.5,1.2c0.3,2.8,0.5,5.6,0.6,8.4C629.3,227.2,628.7,227.8,627.9,227.8C627.9,227.8,627.9,227.8,627.9,227.8z"/>
		<path id="XMLID_270_" class="st8" d="M632.9,232.9c-1.4,2-2.9,4.1-4.3,6.1c-1.4-1.7-2.8-3.5-4.1-5.2c-1.1-1.4-3.1,0.6-2,2
			c1.7,2.2,3.5,4.3,5.2,6.5c0.6,0.8,1.7,0.4,2.2-0.3c1.8-2.6,3.6-5.1,5.4-7.7C636.3,232.9,633.9,231.5,632.9,232.9z"/>
	</g>
</g>
<g id="Lamp">
	<path id="XMLID_337_" class="st8" d="M817.9,498.1c-10.2-18.2-20.4-36.5-30.6-54.7c-1.7-3.1-6.5-0.3-4.8,2.8
		c10.2,18.2,20.4,36.5,30.6,54.7C814.8,504,819.6,501.2,817.9,498.1z"/>
	<path id="XMLID_336_" class="st8" d="M816.7,507.5c-6.1,32.8-12.3,65.7-18.4,98.5c-0.7,3.5,4.7,5,5.3,1.5
		c6.1-32.8,12.3-65.7,18.4-98.5C822.7,505.5,817.4,504,816.7,507.5z"/>
	<path id="XMLID_334_" class="st8" d="M826.8,628.2h-54.9v-7.6c0-11,8.9-19.8,19.8-19.8H807c11,0,19.8,8.9,19.8,19.8V628.2z"/>
	<path id="XMLID_324_" class="st8" d="M828.8,503.6c0.5,5.6-4.5,10.1-10.1,10.1s-10.1-4.5-10.1-10.1s4.5-10.1,10.1-10.1
		S828.3,496.8,828.8,503.6z"/>
	<path id="XMLID_308_" class="st8" d="M788.7,448H676.1v-7.6c0-11,8.9-19.8,19.8-19.8h72.9c11,0,19.8,8.9,19.8,19.8V448z"/>
</g>
<g id="Notebook">
	<path id="XMLID_344_" d="M718.9,510.1c-11.9,36.3-23.8,72.7-35.7,109c-0.8,2.5,3.2,3.6,4,1.1c11.9-36.3,23.8-72.7,35.7-109
		C723.8,508.7,719.7,507.6,718.9,510.1z"/>
	<path id="XMLID_343_" d="M684.1,618.2h-67.2c-2.7,0-2.7,4.2,0,4.2h67.2C686.7,622.3,686.7,618.2,684.1,618.2z"/>
</g>
<g id="Cup">
	<rect id="XMLID_2482_" x="588.3" y="555.5" class="st9" width="40.5" height="53.3"/>
	<path id="XMLID_2471_" class="st9" d="M642.1,566.3c-3.1-5.6-10-2.4-15-3.9c-2.6-0.8-3.7,3.2-1.1,4c2.7,0.8,8-0.3,10.1,0.6
		c5.2,2.4,3.1,23.6,2.4,27.5c-1.3,7.7-7.8,7.3-13.9,6.9c-2.7-0.2-2.7,4,0,4.2c5.1,0.3,10.8,0.5,15-3
		C644.5,598.6,645,571.6,642.1,566.3z"/>
	<path id="XMLID_330_" class="st10" d="M604.1,530.4c-3.6,4.5-4.1,10.7-0.8,15.5c1,1.5,3.4,0.1,2.4-1.4c-2.5-3.7-2.5-8.6,0.4-12.1
		C607.2,531,605.2,529.1,604.1,530.4z"/>
	<path id="XMLID_329_" class="st10" d="M610.3,530.4c-3.7,4.5-4.1,10.7-0.8,15.5c1,1.5,3.4,0.1,2.4-1.4c-2.5-3.7-2.5-8.6,0.4-12.1
		C613.4,531,611.4,529.1,610.3,530.4z"/>
</g>
<g id="Wi_Fi">
	<path id="XMLID_328_" class="st8" d="M681.4,503.9c-18,5.7-29.9,21.1-30.8,40c-0.1,1.8,2.7,1.8,2.8,0c0.8-17.6,12-32,28.8-37.3
		C683.8,506.1,683.1,503.4,681.4,503.9z"/>
	<path id="XMLID_327_" class="st8" d="M682.5,527.5c-7.8,2.3-13.2,9.5-13.1,17.6c0,1.8,2.8,1.8,2.8,0c0-6.9,4.4-13,11.1-15
		C685,529.6,684.2,527,682.5,527.5z"/>
	<path id="XMLID_326_" class="st8" d="M673.9,482.9c-28.1,4.7-47.6,29.6-45.7,58c0.1,1.8,2.9,1.8,2.8,0
		c-1.8-27.3,16.8-50.8,43.7-55.3C676.3,485.3,675.6,482.6,673.9,482.9z"/>
	<path id="XMLID_325_" class="st8" d="M692.2,545.1c0.2,2.2-1.8,3.9-3.9,3.9c-2.2,0-3.9-1.8-3.9-3.9c0-2.2,1.8-3.9,3.9-3.9
		C690.5,541.2,692,542.5,692.2,545.1z"/>
</g>
<g id="Window_1">
	<path id="XMLID_2464_" class="st8" d="M973,327c-3.1,0-5.6-2.5-5.6-5.6s2.5-5.6,5.6-5.6c3.2,0,5.3,2.1,5.6,5.5l0,0
		c0.1,1.4-0.4,2.8-1.4,3.9C976.2,326.3,974.7,327,973,327z M973,318.5c-1.6,0-2.9,1.3-2.9,2.9c0,1.6,1.3,2.9,2.9,2.9
		c0.8,0,1.7-0.4,2.2-1c0.3-0.4,0.7-1,0.6-1.8C975.7,319.5,974.8,318.5,973,318.5z"/>
	<path id="XMLID_2461_" class="st8" d="M992.1,345.3c-3.1,0-5.6-2.5-5.6-5.6c0-3.1,2.5-5.6,5.6-5.6c3.2,0,5.3,2.1,5.6,5.5v0
		c0.1,1.4-0.4,2.8-1.4,3.9C995.3,344.6,993.7,345.3,992.1,345.3z M992.1,336.8c-1.6,0-2.9,1.3-2.9,2.9c0,1.6,1.3,2.9,2.9,2.9
		c0.8,0,1.7-0.4,2.2-1c0.3-0.4,0.7-1,0.6-1.8C994.8,337.8,993.9,336.8,992.1,336.8z"/>
	<path id="XMLID_2449_" class="st11" d="M1028.9,389.4H583.1V260.1h445.8V389.4z M585.9,386.6h440.3V262.9H585.9V386.6z"/>
	<path id="XMLID_297_" class="st12" d="M810.4,314.6H620.5v29.8h160.3C790.6,334.4,800.5,324.5,810.4,314.6z"/>
	<path id="XMLID_296_" class="st12" d="M839.7,314.6h-11c-9.9,9.9-19.8,19.8-29.6,29.8H810C819.9,334.4,829.8,324.5,839.7,314.6z"/>
	<path id="XMLID_295_" class="st12" d="M869.8,314.6h-11c-9.9,9.9-19.8,19.8-29.6,29.8h10.8C850,334.4,859.9,324.5,869.8,314.6z"/>
	<path id="XMLID_294_" class="st12" d="M899.9,314.6h-10.7c-10,9.9-19.9,19.8-29.8,29.8h10.7L899.9,314.6z"/>
	<path id="XMLID_293_" class="st12" d="M930,314.6h-10.7c-10,9.9-19.9,19.8-29.8,29.8h10.7L930,314.6z"/>
	<path id="XMLID_291_" class="st12" d="M959,317.9v-3.3h-8.9c-9.8,9.9-19.7,19.8-29.5,29.8h11.9C941.3,335.5,950.1,326.7,959,317.9z
		"/>
	<path id="XMLID_290_" class="st12" d="M950.9,344.4h8.1v-8.1C956.3,339,953.6,341.7,950.9,344.4z"/>
	<rect id="XMLID_285_" x="716.7" y="287.8" class="st6" width="173.1" height="12"/>
	<path id="XMLID_284_" class="st8" d="M1000.4,284.1c-3.5-3.7-7.1-7.4-10.6-11.1c-1.2-1.3-3.2,0.7-2,2c3.5,3.7,7.1,7.4,10.6,11.1
		C999.7,287.3,1001.6,285.4,1000.4,284.1z"/>
	<path id="XMLID_283_" class="st8" d="M989.5,285.8c3.7-3.5,7.4-7.1,11.1-10.6c1.3-1.2-0.7-3.2-2-2c-3.7,3.5-7.4,7.1-11.1,10.6
		C986.3,285.1,988.3,287,989.5,285.8z"/>
	<path id="XMLID_282_" class="st8" d="M993.7,317.7c-8.1,8.1-16.2,16.3-24.3,24.4c-1.3,1.3,0.7,3.2,2,2c8.1-8.1,16.2-16.3,24.3-24.4
		C996.9,318.4,995,316.4,993.7,317.7z"/>
</g>
<g id="Books">
	<path id="XMLID_384_" class="st10" d="M952,613.2c-0.5-3.4,0-6.8,1-10H844.4c-5.9,7.1-5.3,12.8,0,17.5h111.2
		C953.7,618.9,952.4,616.4,952,613.2z"/>
	<path id="XMLID_383_" class="st10" d="M932.1,593.4c0.3-1,0.7-2,1.1-2.9h-88.8c-4,4.1-3.8,8.7,0,13.6h90.8
		C932.6,601.3,930.9,597.8,932.1,593.4z"/>
	<path id="XMLID_2522_" class="st2" d="M935.8,603.5h-92.2c-0.4,0-0.8-0.2-1-0.5c-2.4-2.8-4.4-7.3-0.1-13.3c0.3-0.4,0.7-0.6,1.1-0.6
		H935c0.8,0,1.4,0.6,1.4,1.4s-0.6,1.4-1.4,1.4h-90.7c-2.1,3.3-2.2,6.1-0.1,8.8h91.5c0.8,0,1.4,0.6,1.4,1.4S936.6,603.5,935.8,603.5z
		"/>
	<path id="XMLID_2521_" class="st2" d="M956.2,621.7H843c-0.4,0-0.9-0.2-1.1-0.6c-4.2-5.8-4.2-12,0-18.4c0.3-0.4,0.7-0.6,1.2-0.6
		h112.2c0.8,0,1.4,0.6,1.4,1.4s-0.6,1.4-1.4,1.4H843.8c-3,5-3,9.6,0,14.1h112.5c0.8,0,1.4,0.6,1.4,1.4S957,621.7,956.2,621.7z"/>
	<path id="XMLID_268_" class="st0" d="M944.9,607.3h-99.6c-0.9,0-0.9,1.4,0,1.4h99.6C945.8,608.7,945.8,607.3,944.9,607.3z"/>
	<path id="XMLID_267_" class="st0" d="M935.7,611.8h-48.5c-0.9,0-0.9,1.4,0,1.4h48.5C936.5,613.1,936.5,611.8,935.7,611.8z"/>
</g>
<g id="Arrows">
	<path id="XMLID_2320_" class="st2" d="M219.4,282.7c-0.4,0-0.7-0.1-1-0.4l-65.1-65.1c-0.3-0.3-0.4-0.6-0.4-1c0-0.4,0.1-0.7,0.4-1
		l68.3-68.3c0.5-0.5,1.4-0.5,2,0c0.5,0.5,0.5,1.4,0,2l-67.3,67.3l64.1,64.1c0.5,0.5,0.5,1.4,0,2
		C220.1,282.6,219.8,282.7,219.4,282.7z"/>
	<path id="XMLID_2319_" class="st2" d="M969.4,551.4c-0.4,0-0.7-0.1-1-0.4c-0.5-0.5-0.5-1.4,0-2l67.3-67.3l-64.1-64.1
		c-0.5-0.5-0.5-1.4,0-2c0.5-0.5,1.4-0.5,2,0l65.1,65.1c0.5,0.5,0.5,1.4,0,2L970.4,551C970.1,551.2,969.8,551.4,969.4,551.4z"/>
</g>
<g id="Ornament">
	<path id="XMLID_2458_" class="st10" d="M881.3,716.6c-7.8,0-14.2-6.4-14.2-14.2s6.4-14.2,14.2-14.2c8.1,0,13.4,5.2,14.2,14
		c0.3,3.5-0.9,6.9-3.4,9.5C889.4,714.9,885.4,716.6,881.3,716.6z M881.3,691.1c-6.3,0-11.4,5.1-11.4,11.4c0,6.3,5.1,11.4,11.4,11.4
		c3.3,0,6.6-1.4,8.8-3.8c1.9-2.1,2.9-4.7,2.6-7.4l0,0C892.1,695.2,888,691.1,881.3,691.1z"/>
	<path id="XMLID_2455_" class="st10" d="M161.3,845.8c-18,0-32.6-14.6-32.6-32.6c0-18,14.6-32.6,32.6-32.6
		c18.9,0,30.8,11.8,32.6,32.5l0,0c0.7,7.9-2,15.6-7.7,21.8C180,841.7,170.6,845.8,161.3,845.8z M161.3,783.4
		c-16.4,0-29.8,13.4-29.8,29.8c0,16.4,13.4,29.8,29.8,29.8c8.6,0,17.1-3.7,22.9-10c5.1-5.6,7.6-12.6,7-19.7l0,0
		C189.5,794.3,178.6,783.4,161.3,783.4z"/>
	<path id="XMLID_2452_" class="st10" d="M1001.8,232.4c-12.6,0-22.9-10.3-22.9-22.9c0-12.6,10.3-22.9,22.9-22.9
		c13.3,0,21.6,8.3,22.9,22.8l0,0c0.5,5.6-1.4,11-5.4,15.4C1014.9,229.6,1008.3,232.4,1001.8,232.4z M1001.8,189.4
		c-11.1,0-20.1,9-20.1,20.1s9,20.1,20.1,20.1c5.8,0,11.6-2.5,15.5-6.8c3.4-3.7,5.1-8.4,4.7-13.2l0,0
		C1020.8,196.6,1013.6,189.4,1001.8,189.4z"/>
	<path id="XMLID_249_" class="st10" d="M169.7,475c-4,21.7-31.8,17.6-47.8,19.4c-11.4,1.3-23.2,6.8-26.6,18.6
		c-0.5,1.7,2.2,2.4,2.7,0.7c6-20.8,33-15.8,49.1-18c11.3-1.6,23-7.9,25.2-20C172.7,474,170.1,473.3,169.7,475z"/>
	<path id="XMLID_248_" class="st10" d="M176.7,488.9c-4,21.7-31.8,17.6-47.8,19.4c-11.4,1.3-23.2,6.8-26.6,18.6
		c-0.5,1.7,2.2,2.4,2.7,0.7c6-20.8,33-15.8,49.1-18c11.3-1.6,23-7.9,25.2-20C179.6,487.9,177,487.1,176.7,488.9z"/>
	<path id="XMLID_247_" class="st10" d="M149.4,250.7c-4,5.2-8,10.5-12,15.7c-1.1,1.4,1.3,2.8,2.4,1.4c4-5.2,8-10.5,12-15.7
		C152.9,250.6,150.5,249.3,149.4,250.7z"/>
	<path id="XMLID_246_" class="st10" d="M155,261.7l-10.2,14.8c-1,1.5,1.4,2.9,2.4,1.4c3.4-4.9,6.8-9.8,10.2-14.8
		C158.4,261.7,156,260.3,155,261.7z"/>
	<path id="XMLID_245_" class="st10" d="M188.5,148c-8-9.5-16.1-19-24.1-28.5c-1.2-1.4-3.1,0.6-2,2l24.1,28.5
		C187.7,151.3,189.6,149.3,188.5,148z"/>
	<path id="XMLID_244_" class="st10" d="M834.1,838.8c-4.2,7.3-12.1,5.9-17,0.4c-2.9-3.3-5.2-6.6-9.2-8.7c-6.7-3.6-14.3-3.5-21.1-0.4
		c-1.6,0.7-0.2,3.1,1.4,2.4c7.2-3.2,16-2.4,22.1,2.9c3.6,3.1,5.6,8,10,10.2c6,3,13,0.3,16.3-5.3
		C837.3,838.6,834.9,837.2,834.1,838.8z"/>
	<path id="XMLID_243_" class="st10" d="M830.6,853.6c-4.2,7.3-12.1,5.9-17,0.4c-2.9-3.3-5.2-6.6-9.2-8.7c-6.7-3.6-14.3-3.5-21.1-0.4
		c-1.6,0.7-0.2,3.1,1.4,2.4c7.2-3.2,16-2.4,22.1,2.9c3.6,3.1,5.6,8,10,10.2c6,3,13,0.3,16.3-5.3
		C833.9,853.5,831.5,852.1,830.6,853.6z"/>
	<path id="XMLID_242_" class="st10" d="M753.2,728.3c-2.3-6-4.6-12-6.9-18c-0.6-1.6-3.3-0.9-2.7,0.7c2.3,6,4.6,12,6.9,18
		C751.2,730.7,753.9,729.9,753.2,728.3z"/>
	<path id="XMLID_241_" class="st10" d="M767.8,735.9c-2.1-8.5-4.2-17.1-6.2-25.6c-0.4-1.7-3.1-1-2.7,0.7c2.1,8.5,4.2,17.1,6.2,25.6
		C765.6,738.3,768.3,737.6,767.8,735.9z"/>
	<path id="XMLID_240_" class="st10" d="M907.5,732.2c-8.9,9.8-17.8,19.7-26.8,29.5c-1.2,1.3,0.8,3.3,2,2
		c8.9-9.8,17.8-19.7,26.8-29.5C910.7,732.9,908.7,730.9,907.5,732.2z"/>
	<path id="XMLID_239_" class="st10" d="M1109.2,647.7c-10.1,28.3-52.8,19.6-64.9,46.8c-0.7,1.6,1.7,3,2.4,1.4
		c12.1-27.2,54.8-18.3,65.2-47.5C1112.5,646.7,1109.8,646,1109.2,647.7z"/>
	<path id="XMLID_238_" class="st10" d="M1118.9,668.5c-10.1,28.3-52.8,19.6-64.9,46.8c-0.7,1.6,1.7,3,2.4,1.4
		c12.1-27.2,54.8-18.3,65.2-47.5C1122.2,667.5,1119.5,666.8,1118.9,668.5z"/>
	<path id="XMLID_237_" class="st10" d="M1058.5,953.8c-12.9-13.9-25.7-27.8-38.6-41.7c-1.2-1.3-3.2,0.7-2,2
		c12.9,13.9,25.7,27.8,38.6,41.7C1057.8,957,1059.7,955.1,1058.5,953.8z"/>
	<path id="XMLID_234_" class="st10" d="M937.7,549.7c-3.2,4.3-6.5,8.6-9.7,12.9c-1.1,1.4,1.3,2.8,2.4,1.4c3.2-4.3,6.5-8.6,9.7-12.9
		C941.1,549.7,938.7,548.3,937.7,549.7z"/>
	<path id="XMLID_233_" class="st10" d="M1045.8,428.8c-5.1,2.2-10.2,4.3-15.2,6.5c-1.6,0.7-0.2,3.1,1.4,2.4
		c5.1-2.2,10.2-4.3,15.2-6.5C1048.8,430.5,1047.4,428.1,1045.8,428.8z"/>
	<path id="XMLID_232_" class="st10" d="M1053.8,437.4c-7.1,3.2-14.2,6.3-21.3,9.5c-1.6,0.7-0.2,3.1,1.4,2.4
		c7.1-3.2,14.2-6.3,21.3-9.5C1056.8,439.1,1055.4,436.7,1053.8,437.4z"/>
	<path id="XMLID_231_" class="st10" d="M97.7,928.3c-11.5-5.8-23.1-11.5-34.6-17.3c-1.6-0.8-3,1.6-1.4,2.4
		c11.5,5.8,23.1,11.5,34.6,17.3C97.9,931.5,99.3,929.1,97.7,928.3z"/>
	<path id="XMLID_25_" class="st10" d="M263,860.5c-3,3.5-6,6.9-9,10.4c-1.2,1.3,0.8,3.3,2,2c3-3.5,6-6.9,9-10.4
		C266.1,861.2,264.1,859.2,263,860.5z"/>
	<path id="XMLID_24_" class="st10" d="M958.7,216c-3,3.7-6,7.4-9,11.1c-1.1,1.4,0.8,3.3,2,2c3-3.7,6-7.4,9-11.1
		C961.8,216.6,959.9,214.6,958.7,216z"/>
	<path id="XMLID_23_" class="st10" d="M784.7,90.3c-11.3-1.4-22.2,2.7-29.8,11.1c-1.2,1.3,0.8,3.3,2,2c7.2-7.9,17.2-11.6,27.8-10.3
		C786.4,93.3,786.4,90.5,784.7,90.3z"/>
	<path id="XMLID_20_" class="st10" d="M789.5,99.3c-11.3-1.4-22.2,2.7-29.8,11.1c-1.2,1.3,0.8,3.3,2,2c7.2-7.9,17.2-11.6,27.8-10.3
		C791.3,102.3,791.3,99.5,789.5,99.3z"/>
</g>
<g id="Woman">
	<g id="Legs">
		<path id="XMLID_380_" class="st4" d="M557.5,777.1c-55.4,67.2-37.4,218.1-37.4,218.1h134.3c0,0-0.7-33.2-44.3-37.4
			c-43.6-4.2-8.3-45.7,47.1-177.2L557.5,777.1z"/>
		<path id="XMLID_379_" class="st10" d="M610.1,957.7c-26.5-2.5-23.9-18.9-5.2-61c-28.5,0.4-57-1.8-85.4-5.5
			c-5.3,54.7,0.6,103.9,0.6,103.9h134.3C654.4,995.1,653.7,961.9,610.1,957.7z"/>
		<path id="XMLID_260_" class="st4" d="M771.2,959.6c-55.6-11.8-43.4-42-57.5-135.9c-14.4-96.3-18.9-114-95.9-121.3
			c-15.4,39.5-30.2,79.3-40.6,120.3c19.9-0.9,32.2-1.8,32.2-1.8s-2.8,15.5,67.4,174.2h129.9C806.7,995.1,811.6,968.1,771.2,959.6z"
			/>
		<path id="XMLID_359_" class="st10" d="M771.2,959.6c-41-8.7-45.1-27.4-50.1-74.3c-26.8,9.3-54.3,16.4-82.4,20.6
			c9.4,23.1,21.8,52.3,38.1,89.3h129.9C806.7,995.1,811.6,968.1,771.2,959.6z"/>
		<path id="XMLID_194_" class="st7" d="M518.5,696.3c-24.9-1.4-48.9-1.4-71.5-2.8c-1.5-8.5-2.7-21.7-3.7-36.2
			c-51.7,1.5-103.4,5.4-154.9,10.1c-1,9.2-1.9,18.7-2.5,28.5c-10.6,160.6,132,128.8,211.4,128.8c42.3,0,78.8-1.7,97.9-2.8
			c11.4-39.2,20.2-79.3,31.5-118.5c0,0,0,0,0,0C600.9,700.3,566.2,699.1,518.5,696.3z"/>
		<path id="XMLID_357_" class="st12" d="M771.2,959.6c-14.4-3-24.3-7.3-31.2-13.7c-8.3,4.2-16.5,8.5-25.1,12.2
			c-15.8,6.9-31.9,11-49,12.2c3.4,7.9,7,16.1,10.9,24.9h129.9C806.7,995.1,811.6,968.1,771.2,959.6z"/>
		<path id="XMLID_354_" class="st12" d="M610.1,957.7c-6.3-0.6-11-2-14.2-4.3c-8,4.5-16.1,8.8-25.1,11.3c-17.2,4.7-35.1,4.2-52.8,4
			c0.8,16.3,2,26.5,2,26.5h134.3C654.4,995.1,653.7,961.9,610.1,957.7z"/>
		<path id="XMLID_265_" d="M620.4,854.1c-3-9.1-6-18.2-9-27.3c-0.3-0.8-1.6-0.5-1.3,0.4c3,9.1,6,18.2,9,27.3
			C619.4,855.3,620.7,854.9,620.4,854.1z"/>
		<path id="XMLID_2314_" class="st0" d="M574.8,729.6c-27.4-1.2-54.7-2.8-82-4.8c-13.7-1-27.3-2.2-40.9-3.4
			c-6.5-0.6-13-1.1-19.5-1.9c-6.1-0.7-12.4-1.9-17.8-5.1c-11.1-6.7-13.7-20.5-15.7-32.3c-0.1-0.9-1.5-0.5-1.3,0.4
			c1.7,9.9,3.6,20.7,10.6,28.4c7.7,8.4,19.4,9.6,30.1,10.7c29.1,2.8,58.2,5.2,87.4,7c16.4,1,32.8,1.9,49.2,2.6
			C575.6,731,575.6,729.6,574.8,729.6z"/>
		<path id="XMLID_2303_" class="st0" d="M349.3,786.6c-0.5-1.2-2.7-2.9-3.6-3.8c-1.2-1.3-2.3-2.6-3.5-4c-2.5-2.9-4.8-6-7-9.1
			c-8.3-11.8-14.7-24.8-19-38.5c-0.1-0.4-0.5-0.6-0.9-0.5c-6.6,1.2-13.1,2.3-19.7,3.5c-0.9,0.2-0.5,1.5,0.4,1.3
			c6.3-1.1,12.7-2.3,19-3.4c4.1,12.7,9.9,24.8,17.3,35.8c3.6,5.4,7.6,10.5,12,15.4c1.1,1.2,3,2.6,3.4,4.2c0.4,1.6-0.5,3.8-0.8,5.4
			c-0.9,4.2-1.8,8.4-2.7,12.7c-0.2,0.9,1.2,1.2,1.3,0.4c0.8-4,1.7-8,2.5-12C348.5,791.9,350,788.6,349.3,786.6z"/>
		<path id="XMLID_2318_" class="st0" d="M442.6,694l-10.4-1c-0.9-0.1-0.9,1.3,0,1.4l10.4,1C443.4,695.4,443.4,694.1,442.6,694z"/>
	</g>
	<g id="Head">
		<path id="XMLID_377_" class="st4" d="M455,459c-1.7,0.2-46.4,38.8-46.4,38.8l-23.4-47.5l52.7-21L455,459z"/>
		<path id="XMLID_376_" d="M440.8,470.3c7.5-6.3,13.5-11.2,14.1-11.2l-6.3-11C443.2,454.2,439.5,462.8,440.8,470.3z"/>
		<path id="XMLID_369_" class="st4" d="M427,381.6c7.7-11.3,32.6-11.7,47.2-4.3c6.4,3.2,10.9-0.6,11.1,5.2
			c0.5,14.5,1.9,61.5-5.5,70.6c-12.9,16-35.9,6.2-45.2-9C425.3,428.8,416.1,397.6,427,381.6z"/>
		<path id="XMLID_368_" d="M486.1,370.8c-6.5-3.7-18-0.7-23.3,2.6c-13.8-2.8-29.8-0.5-35.7,8.1c-7.3,10.7-30.3,21.2-27,45.3
			c1.9,14.9,25.7,27.3,41,20.4c18.3-8.2,15.5-31.4,18.1-33.9c8.1-6.5,8.2-17.7,6-26.1c4.2,3.1,18,1.3,21.8-3.7
			C491.8,376.3,488.1,372,486.1,370.8z"/>
		<path id="XMLID_367_" class="st4" d="M460.4,438.6c-4.4,2.1-13.7,2.3-19-1.9c-6.1-4.7-7.6-10.9-4.8-18.7c2-5.5,9-9.1,15.9-7.7h0
			c1.7,0.4,3.5,1,5.1,2.1c0.5,0.3,1,0.7,1.4,1C459.3,421.9,459.8,430.2,460.4,438.6z"/>
		<path id="XMLID_366_" class="st4" d="M490.3,419.2c-0.3-3.2-3.5-5.2-6.5-4.6c-1,0.2-1.5,1.5-1.2,2.4c0,0.1,0.1,0.2,0.1,0.2
			c-0.3,0.1-0.6,0.2-0.9,0.3c-2.2,1.1-0.1,4.3,2,3.2c0,0,0.2,0,0,0.1c-1.7,0.6-1.8,3.3,0.1,3.7C487.1,425.3,490.6,422.7,490.3,419.2
			z"/>
		<path id="XMLID_365_" d="M455.9,427.3l-6.4-6.5c-0.7-0.7-1.8,0.4-1.1,1.1c2.1,2.2,4.3,4.4,6.4,6.5
			C455.4,429.1,456.6,428,455.9,427.3z"/>
		<path id="XMLID_364_" d="M478.9,436.2c-1.1-0.4-2.3-0.8-3.4-1.2c-1-0.3-1.4,1.2-0.4,1.5c1.1,0.4,2.3,0.8,3.4,1.2
			C479.5,438,479.9,436.5,478.9,436.2z"/>
		<path id="XMLID_363_" d="M480.7,406.9c-0.3,1.8-0.7,3.5-1,5.3c-0.2,1,1.3,1.4,1.5,0.4c0.3-1.8,0.7-3.5,1-5.3
			C482.4,406.3,480.9,405.9,480.7,406.9z"/>
		<path id="XMLID_362_" d="M481.2,400.4c-0.9,0.2-1.8,0.5-2.7,0.7c-2,0.5-1.1,3.6,0.8,3c0.9-0.2,1.8-0.5,2.7-0.7
			C484,403,483.1,399.9,481.2,400.4z"/>
		<path id="XMLID_361_" class="st0" d="M489.3,407.5l-4.4,11.4c-0.4,0.9-1.9,0.5-1.5-0.4c0.5-1.2,0.9-2.4,1.4-3.6
			c-7.3-0.7-18.4-1.7-27.1-2.5c-1.6-1-3.4-1.7-5.1-2.1c9.4,0.9,23.8,2.1,32.8,3c0.8-2.1,1.6-4.2,2.4-6.3
			C488.1,406.1,489.6,406.5,489.3,407.5z"/>
	</g>
	<g id="Book">
		<path id="XMLID_2491_" class="st9" d="M405.9,674.1c12.8-0.6,25.6-1.5,38.4-2.6c-3.2-36.5-4.4-91.6-4.4-91.6l-16.4-92.8
			c0,0-0.3-42.9-21.9-41.5c-41.7,2.7-100.6,83.2-114.4,232.5C326.8,677,366.4,676,405.9,674.1z"/>
		<path id="XMLID_355_" d="M375.3,584.9c-10.4,53.9,43.6,70.9,61.2,68.5c4.8-0.7,9.6-1.7,14.3-2.9c-2.9-40-4-95.8-4-95.8l-6.5-40.5
			c-11.2,6.6-21.7,14.7-31.2,23.6C395.2,550.8,378.2,569.8,375.3,584.9z"/>
	</g>
	<g id="Hand">
		<path id="XMLID_195_" class="st4" d="M636.2,581.3c-2.8-9.2-17.5-5.8-25.7-4.3c0.2-0.5,3.4-2,3.5-2.6c3.6-0.3,7.2-1.4,10.5-3.2
			c3.9-2.1,4.8-7.6,1-8.1c-16.2-2.2-29.4,0-32.9,0.7c-7.8,1.5-15.2,4.3-22.3,7.9c-0.9,0.4-1.6,1-2.1,1.6c-23.4-2.1-50-1-70.6,0.7
			c-1.5,24.7-1.3,49.6,2.2,74c31.2-8.2,63.6-17.7,82.8-23.5c8.1,0.1,16.3-0.1,24.4-0.7c9.6-0.7,20-2.5,24.9-11.9
			c2.4-4.5,2.7-9.8,3.2-14.7C635.8,592.3,637.6,586.1,636.2,581.3z"/>
		<path id="XMLID_2468_" class="st9" d="M507,573.3c-25,1.6-44,4.4-44,4.4c-18.7-112.2-28.3-127.2-58.3-131.8
			c0,0-15.8,11.3-17.2,90.6s2.1,126,34.3,127c14.4,0.5,51.5-8.3,88.2-18.2C508.6,621.3,507.7,597.3,507,573.3z"/>
		<path id="XMLID_264_" class="st0" d="M460,577.7c-3,0.7-6,1.4-9,2.1c-0.9,0.2-0.5,1.5,0.4,1.3c3-0.7,6-1.4,9-2.1
			C461.3,578.8,460.9,577.5,460,577.7z"/>
		<path id="XMLID_263_" d="M386.2,534.9c-0.1,12.1-0.1,24.2-0.2,36.3c0,0.9,1.4,0.9,1.4,0c0.1-12.1,0.1-24.2,0.2-36.3
			C387.6,534,386.2,534,386.2,534.9z"/>
		<path id="XMLID_258_" class="st8" d="M632.2,586.6c-1.1,0.7-2.2,1.3-3.2,2c-0.8,0.5-0.1,1.7,0.7,1.2l3.2-2
			C633.7,587.3,633,586.1,632.2,586.6z"/>
		<path id="XMLID_257_" class="st8" d="M632.1,596.2c-1.1,0.7-2.2,1.3-3.2,2c-0.8,0.5-0.1,1.7,0.7,1.2l3.2-2
			C633.5,596.9,632.8,595.7,632.1,596.2z"/>
		<path id="XMLID_256_" class="st8" d="M629.8,608.6c-1.1,0.7-2.2,1.3-3.2,2c-0.8,0.5-0.1,1.7,0.7,1.2l3.2-2
			C631.2,609.4,630.5,608.2,629.8,608.6z"/>
	</g>
	<g id="Points">
		<path id="XMLID_217_" class="st0" d="M380.3,466.7c0.1,1.7-1.4,3-3,3s-3-1.4-3-3s1.4-3,3-3S380.1,464.7,380.3,466.7z"/>
		<path id="XMLID_216_" class="st0" d="M426.4,466.7c0.1,1.7-1.4,3-3,3s-3-1.4-3-3s1.4-3,3-3S426.2,464.7,426.4,466.7z"/>
		<path id="XMLID_215_" class="st0" d="M334.2,511c0.1,1.7-1.4,3-3,3c-0.3,0-0.6,0-0.9-0.1c0.9-1.8,1.9-3.6,2.8-5.3
			C333.8,509.1,334.1,509.9,334.2,511z"/>
		<path id="XMLID_214_" class="st0" d="M380.3,511c0.1,1.7-1.4,3-3,3s-3-1.4-3-3c0-1.7,1.4-3,3-3S380.1,509,380.3,511z"/>
		<path id="XMLID_213_" class="st0" d="M426.4,511c0.1,1.7-1.4,3-3,3s-3-1.4-3-3c0-1.7,1.4-3,3-3S426.2,509,426.4,511z"/>
		<path id="XMLID_212_" class="st0" d="M334.2,555.3c0.1,1.7-1.4,3-3,3s-3-1.4-3-3s1.4-3,3-3S334.1,553.3,334.2,555.3z"/>
		<path id="XMLID_211_" class="st0" d="M380.3,555.3c0.1,1.7-1.4,3-3,3s-3-1.4-3-3s1.4-3,3-3S380.1,553.3,380.3,555.3z"/>
		<path id="XMLID_210_" class="st0" d="M426.4,555.3c0.1,1.7-1.4,3-3,3s-3-1.4-3-3s1.4-3,3-3S426.2,553.3,426.4,555.3z"/>
		<path id="XMLID_209_" class="st0" d="M334.2,599.6c0.1,1.7-1.4,3-3,3s-3-1.4-3-3c0-1.7,1.4-3,3-3S334.1,597.6,334.2,599.6z"/>
		<path id="XMLID_208_" class="st0" d="M426.4,599.6c0.1,1.7-1.4,3-3,3s-3-1.4-3-3c0-1.7,1.4-3,3-3S426.2,597.6,426.4,599.6z"/>
		<path id="XMLID_207_" class="st0" d="M472.5,599.6c0.1,1.7-1.4,3-3,3c-1.7,0-3-1.4-3-3c0-1.7,1.4-3,3-3
			C471.1,596.6,472.3,597.6,472.5,599.6z"/>
		<path id="XMLID_206_" class="st0" d="M334.2,643.9c0.1,1.7-1.4,3-3,3s-3-1.4-3-3c0-1.7,1.4-3,3-3S334.1,641.9,334.2,643.9z"/>
		<path id="XMLID_205_" class="st0" d="M380.3,643.9c0.1,1.7-1.4,3-3,3s-3-1.4-3-3c0-1.7,1.4-3,3-3S380.1,641.9,380.3,643.9z"/>
		<path id="XMLID_204_" class="st0" d="M426.4,643.9c0.1,1.7-1.4,3-3,3s-3-1.4-3-3c0-1.7,1.4-3,3-3S426.2,641.9,426.4,643.9z"/>
		<path id="XMLID_203_" class="st0" d="M472.5,643.9c0.1,1.7-1.4,3-3,3c-1.7,0-3-1.4-3-3c0-1.7,1.4-3,3-3
			C471.1,640.9,472.3,641.9,472.5,643.9z"/>
	</g>
</g>
<g id="Table">
	<path id="XMLID_255_" class="st9" d="M589.8,624.7v367.7c0,6.2,9.7,6.2,9.7,0V624.7H589.8z"/>
	<path id="XMLID_2467_" class="st9" d="M957.2,628.8v363.5c0,6.2,9.7,6.2,9.7,0V628.6C963.7,628.8,960.4,628.9,957.2,628.8z"/>
	<path id="XMLID_2322_" class="st9" d="M996.2,621.5H559.1c-6.2,0-6.2,9.7,0,9.7h437.1C1002.4,631.2,1002.4,621.5,996.2,621.5z"/>
</g>
<g id="Chair">
	<path id="XMLID_2490_" class="st9" d="M291,821.9c-2.4-22.8-4.8-45.5-7.2-68.3c-0.5-4.4-7.4-4.4-6.9,0c2.4,22.8,4.8,45.5,7.2,68.3
		C284.5,826.3,291.5,826.3,291,821.9z"/>
	<path id="XMLID_2489_" class="st9" d="M377.9,824c-0.8,0.4-1.8,0.7-3,0.7c-0.2,0-0.5,0-0.7,0v157.1c0,4.5,6.9,4.5,6.9,0V823.8
		C380.1,823.9,379,823.9,377.9,824z"/>
	<path id="XMLID_2488_" class="st9" d="M446.8,975.1c-15.6-21.4-40.4-35.2-67-36.2c-27.6-1-54.6,12.4-71.3,34.2
		c-2.7,3.5,2.3,8.3,5,4.8c15.2-19.9,39.1-32.4,64.3-32.1c24.8,0.3,48.5,13,63,32.9C443.5,982.3,449.4,978.7,446.8,975.1z"/>
	<path id="XMLID_350_" class="st12" d="M321.4,981.3c0.8,8.8-7.1,15.9-15.9,15.9c-8.8,0-15.9-7.1-15.9-15.9
		c0-8.8,7.1-15.9,15.9-15.9C314.3,965.4,320.5,970.7,321.4,981.3z"/>
	<path id="XMLID_349_" class="st0" d="M311.2,981.3c0.3,3.1-2.6,5.7-5.7,5.7c-3.2,0-5.7-2.6-5.7-5.7c0-3.2,2.6-5.7,5.7-5.7
		C308.7,975.6,310.9,977.5,311.2,981.3z"/>
	<path id="XMLID_348_" class="st12" d="M393.2,981.3c0.8,8.8-7.1,15.9-15.9,15.9c-8.8,0-15.9-7.1-15.9-15.9
		c0-8.8,7.1-15.9,15.9-15.9C386,965.4,392.3,970.7,393.2,981.3z"/>
	<path id="XMLID_347_" class="st12" d="M458.3,981.3c0.8,8.8-7.1,15.9-15.9,15.9c-8.8,0-15.9-7.1-15.9-15.9
		c0-8.8,7.1-15.9,15.9-15.9C451.1,965.4,457.3,970.7,458.3,981.3z"/>
	<path id="XMLID_224_" class="st12" d="M287.3,758.2c-8.2-69.8-16.4-139.6-24.6-209.5c-0.6-4.9-3.7-8.9-9-9c-4.4,0-9.6,4.2-9,9
		c8.2,69.8,16.4,139.6,24.6,209.5c0.6,4.9,3.7,8.9,9,9C282.8,767.2,287.9,763,287.3,758.2z"/>
	<path id="XMLID_223_" class="st12" d="M471.9,819.3H290.9c-11.6,0-11.6,18,0,18h180.9C483.5,837.3,483.5,819.3,471.9,819.3z"/>
	<path id="XMLID_219_" class="st0" d="M382.9,981.3c0.3,3.1-2.6,5.7-5.7,5.7s-5.7-2.6-5.7-5.7c0-3.2,2.6-5.7,5.7-5.7
		S382.5,977.5,382.9,981.3z"/>
	<path id="XMLID_218_" class="st0" d="M447.6,981.3c0.3,3.1-2.6,5.7-5.7,5.7s-5.7-2.6-5.7-5.7c0-3.2,2.6-5.7,5.7-5.7
		S447.3,977.5,447.6,981.3z"/>
</g>
<path id="Shadow" class="st6" d="M994.3,994.4H264.7c-1.8,0-1.8,2.8,0,2.8h729.7C996.1,997.2,996.1,994.4,994.3,994.4z"/>
</svg>
